<mxfile host="app.diagrams.net" modified="2024-05-09T10:55:06.560Z" agent="Mozilla/5.0 (Windows NT 10.0; Win64; x64) AppleWebKit/537.36 (KHTML, like Gecko) Chrome/124.0.0.0 Safari/537.36" etag="iV8-6iX-UDBPSMiAkB5q" version="24.3.1" type="google" pages="3">
  <diagram name="Friendships" id="hgzb1L47BnvPmC0BO0nF">
    <mxGraphModel dx="962" dy="1630" grid="0" gridSize="10" guides="1" tooltips="1" connect="1" arrows="1" fold="1" page="0" pageScale="1" pageWidth="827" pageHeight="1169" math="0" shadow="0">
      <root>
        <mxCell id="0" />
        <mxCell id="1" parent="0" />
        <mxCell id="0TQG4CnRq-OOhmtkuFAe-11" style="edgeStyle=none;curved=1;rounded=0;orthogonalLoop=1;jettySize=auto;html=1;exitX=0;exitY=1;exitDx=0;exitDy=0;fontSize=12;startSize=8;endSize=8;" edge="1" parent="1" source="0TQG4CnRq-OOhmtkuFAe-1" target="0TQG4CnRq-OOhmtkuFAe-2">
          <mxGeometry relative="1" as="geometry" />
        </mxCell>
        <mxCell id="0TQG4CnRq-OOhmtkuFAe-1" value="&lt;font style=&quot;font-size: 16px;&quot;&gt;user 1&lt;/font&gt;" style="ellipse;whiteSpace=wrap;html=1;aspect=fixed;" vertex="1" parent="1">
          <mxGeometry x="84" y="-8" width="80" height="80" as="geometry" />
        </mxCell>
        <mxCell id="0TQG4CnRq-OOhmtkuFAe-13" style="edgeStyle=none;curved=1;rounded=0;orthogonalLoop=1;jettySize=auto;html=1;exitX=0;exitY=1;exitDx=0;exitDy=0;fontSize=12;startSize=8;endSize=8;" edge="1" parent="1" source="0TQG4CnRq-OOhmtkuFAe-2" target="0TQG4CnRq-OOhmtkuFAe-9">
          <mxGeometry relative="1" as="geometry" />
        </mxCell>
        <mxCell id="0TQG4CnRq-OOhmtkuFAe-2" value="&lt;font style=&quot;font-size: 16px;&quot;&gt;user 2&lt;/font&gt;" style="ellipse;whiteSpace=wrap;html=1;aspect=fixed;" vertex="1" parent="1">
          <mxGeometry x="-4" y="95" width="80" height="80" as="geometry" />
        </mxCell>
        <mxCell id="0TQG4CnRq-OOhmtkuFAe-14" style="edgeStyle=none;curved=1;rounded=0;orthogonalLoop=1;jettySize=auto;html=1;exitX=0.5;exitY=0;exitDx=0;exitDy=0;fontSize=12;startSize=8;endSize=8;" edge="1" parent="1" source="0TQG4CnRq-OOhmtkuFAe-3" target="0TQG4CnRq-OOhmtkuFAe-1">
          <mxGeometry relative="1" as="geometry" />
        </mxCell>
        <mxCell id="0TQG4CnRq-OOhmtkuFAe-15" style="edgeStyle=none;curved=1;rounded=0;orthogonalLoop=1;jettySize=auto;html=1;exitX=0.5;exitY=1;exitDx=0;exitDy=0;fontSize=12;startSize=8;endSize=8;" edge="1" parent="1" source="0TQG4CnRq-OOhmtkuFAe-3" target="0TQG4CnRq-OOhmtkuFAe-6">
          <mxGeometry relative="1" as="geometry" />
        </mxCell>
        <mxCell id="0TQG4CnRq-OOhmtkuFAe-3" value="&lt;font style=&quot;font-size: 16px;&quot;&gt;user 3&lt;/font&gt;" style="ellipse;whiteSpace=wrap;html=1;aspect=fixed;" vertex="1" parent="1">
          <mxGeometry x="137" y="145" width="80" height="80" as="geometry" />
        </mxCell>
        <mxCell id="0TQG4CnRq-OOhmtkuFAe-16" style="edgeStyle=none;curved=1;rounded=0;orthogonalLoop=1;jettySize=auto;html=1;exitX=1;exitY=1;exitDx=0;exitDy=0;fontSize=12;startSize=8;endSize=8;" edge="1" parent="1" source="0TQG4CnRq-OOhmtkuFAe-4" target="0TQG4CnRq-OOhmtkuFAe-2">
          <mxGeometry relative="1" as="geometry" />
        </mxCell>
        <mxCell id="0TQG4CnRq-OOhmtkuFAe-4" value="&lt;font style=&quot;font-size: 16px;&quot;&gt;user 4&lt;/font&gt;" style="ellipse;whiteSpace=wrap;html=1;aspect=fixed;" vertex="1" parent="1">
          <mxGeometry x="-96" y="-8" width="80" height="80" as="geometry" />
        </mxCell>
        <mxCell id="0TQG4CnRq-OOhmtkuFAe-17" style="edgeStyle=none;curved=1;rounded=0;orthogonalLoop=1;jettySize=auto;html=1;exitX=1;exitY=0.5;exitDx=0;exitDy=0;entryX=0;entryY=0.5;entryDx=0;entryDy=0;fontSize=12;startSize=8;endSize=8;" edge="1" parent="1" source="0TQG4CnRq-OOhmtkuFAe-5" target="0TQG4CnRq-OOhmtkuFAe-4">
          <mxGeometry relative="1" as="geometry" />
        </mxCell>
        <mxCell id="0TQG4CnRq-OOhmtkuFAe-5" value="&lt;font style=&quot;font-size: 16px;&quot;&gt;user 5&lt;/font&gt;" style="ellipse;whiteSpace=wrap;html=1;aspect=fixed;" vertex="1" parent="1">
          <mxGeometry x="-260" y="-18" width="80" height="80" as="geometry" />
        </mxCell>
        <mxCell id="0TQG4CnRq-OOhmtkuFAe-18" style="edgeStyle=none;curved=1;rounded=0;orthogonalLoop=1;jettySize=auto;html=1;exitX=0;exitY=1;exitDx=0;exitDy=0;fontSize=12;startSize=8;endSize=8;" edge="1" parent="1" source="0TQG4CnRq-OOhmtkuFAe-6" target="0TQG4CnRq-OOhmtkuFAe-7">
          <mxGeometry relative="1" as="geometry" />
        </mxCell>
        <mxCell id="0TQG4CnRq-OOhmtkuFAe-19" style="edgeStyle=none;curved=1;rounded=0;orthogonalLoop=1;jettySize=auto;html=1;exitX=1;exitY=1;exitDx=0;exitDy=0;entryX=0;entryY=0.5;entryDx=0;entryDy=0;fontSize=12;startSize=8;endSize=8;" edge="1" parent="1" source="0TQG4CnRq-OOhmtkuFAe-6" target="0TQG4CnRq-OOhmtkuFAe-8">
          <mxGeometry relative="1" as="geometry" />
        </mxCell>
        <mxCell id="0TQG4CnRq-OOhmtkuFAe-6" value="&lt;font style=&quot;font-size: 16px;&quot;&gt;user 6&lt;/font&gt;" style="ellipse;whiteSpace=wrap;html=1;aspect=fixed;" vertex="1" parent="1">
          <mxGeometry x="90" y="274" width="80" height="80" as="geometry" />
        </mxCell>
        <mxCell id="0TQG4CnRq-OOhmtkuFAe-7" value="&lt;font style=&quot;font-size: 16px;&quot;&gt;user 7&lt;/font&gt;" style="ellipse;whiteSpace=wrap;html=1;aspect=fixed;" vertex="1" parent="1">
          <mxGeometry x="4" y="362" width="80" height="80" as="geometry" />
        </mxCell>
        <mxCell id="0TQG4CnRq-OOhmtkuFAe-20" style="edgeStyle=none;curved=1;rounded=0;orthogonalLoop=1;jettySize=auto;html=1;exitX=0.5;exitY=0;exitDx=0;exitDy=0;entryX=1;entryY=1;entryDx=0;entryDy=0;fontSize=12;startSize=8;endSize=8;" edge="1" parent="1" source="0TQG4CnRq-OOhmtkuFAe-8" target="0TQG4CnRq-OOhmtkuFAe-3">
          <mxGeometry relative="1" as="geometry" />
        </mxCell>
        <mxCell id="0TQG4CnRq-OOhmtkuFAe-8" value="&lt;font style=&quot;font-size: 16px;&quot;&gt;user 8&lt;/font&gt;" style="ellipse;whiteSpace=wrap;html=1;aspect=fixed;" vertex="1" parent="1">
          <mxGeometry x="202" y="339" width="80" height="80" as="geometry" />
        </mxCell>
        <mxCell id="0TQG4CnRq-OOhmtkuFAe-9" value="&lt;font style=&quot;font-size: 16px;&quot;&gt;user 9&lt;/font&gt;" style="ellipse;whiteSpace=wrap;html=1;aspect=fixed;" vertex="1" parent="1">
          <mxGeometry x="-76" y="198" width="80" height="80" as="geometry" />
        </mxCell>
        <mxCell id="0TQG4CnRq-OOhmtkuFAe-12" style="edgeStyle=none;curved=1;rounded=0;orthogonalLoop=1;jettySize=auto;html=1;exitX=0;exitY=0;exitDx=0;exitDy=0;entryX=0.5;entryY=1;entryDx=0;entryDy=0;fontSize=12;startSize=8;endSize=8;" edge="1" parent="1" source="0TQG4CnRq-OOhmtkuFAe-10" target="0TQG4CnRq-OOhmtkuFAe-5">
          <mxGeometry relative="1" as="geometry" />
        </mxCell>
        <mxCell id="0TQG4CnRq-OOhmtkuFAe-10" value="&lt;font style=&quot;font-size: 16px;&quot;&gt;user 10&lt;/font&gt;" style="ellipse;whiteSpace=wrap;html=1;aspect=fixed;" vertex="1" parent="1">
          <mxGeometry x="-196" y="123" width="80" height="80" as="geometry" />
        </mxCell>
      </root>
    </mxGraphModel>
  </diagram>
  <diagram id="7f8wFx9pqjPdwVJnemrN" name="PostPublishes">
    <mxGraphModel dx="2800" dy="1138" grid="0" gridSize="10" guides="1" tooltips="1" connect="1" arrows="1" fold="1" page="0" pageScale="1" pageWidth="827" pageHeight="1169" math="0" shadow="0">
      <root>
        <mxCell id="0" />
        <mxCell id="1" parent="0" />
        <mxCell id="ptF2EqPsggVy_UE8Fy4T-2" value="&lt;font style=&quot;font-size: 16px;&quot;&gt;user 1&lt;/font&gt;" style="ellipse;whiteSpace=wrap;html=1;aspect=fixed;" vertex="1" parent="1">
          <mxGeometry x="-642" y="516" width="80" height="80" as="geometry" />
        </mxCell>
        <mxCell id="ptF2EqPsggVy_UE8Fy4T-4" value="&lt;font style=&quot;font-size: 16px;&quot;&gt;user 2&lt;/font&gt;" style="ellipse;whiteSpace=wrap;html=1;aspect=fixed;" vertex="1" parent="1">
          <mxGeometry x="-1049" y="527" width="80" height="80" as="geometry" />
        </mxCell>
        <mxCell id="ptF2EqPsggVy_UE8Fy4T-7" value="&lt;font style=&quot;font-size: 16px;&quot;&gt;user 3&lt;/font&gt;" style="ellipse;whiteSpace=wrap;html=1;aspect=fixed;" vertex="1" parent="1">
          <mxGeometry x="-301" y="527" width="80" height="80" as="geometry" />
        </mxCell>
        <mxCell id="ptF2EqPsggVy_UE8Fy4T-9" value="&lt;font style=&quot;font-size: 16px;&quot;&gt;user 4&lt;/font&gt;" style="ellipse;whiteSpace=wrap;html=1;aspect=fixed;" vertex="1" parent="1">
          <mxGeometry x="-92" y="531" width="80" height="80" as="geometry" />
        </mxCell>
        <mxCell id="ptF2EqPsggVy_UE8Fy4T-18" value="&lt;font style=&quot;font-size: 16px;&quot;&gt;user 9&lt;/font&gt;" style="ellipse;whiteSpace=wrap;html=1;aspect=fixed;" vertex="1" parent="1">
          <mxGeometry x="-829" y="516" width="80" height="80" as="geometry" />
        </mxCell>
        <mxCell id="ptF2EqPsggVy_UE8Fy4T-32" style="edgeStyle=none;curved=1;rounded=0;orthogonalLoop=1;jettySize=auto;html=1;exitX=0.5;exitY=0;exitDx=0;exitDy=0;entryX=0;entryY=1;entryDx=0;entryDy=0;fontSize=12;startSize=8;endSize=8;" edge="1" parent="1" source="ptF2EqPsggVy_UE8Fy4T-21" target="ptF2EqPsggVy_UE8Fy4T-2">
          <mxGeometry relative="1" as="geometry" />
        </mxCell>
        <mxCell id="ptF2EqPsggVy_UE8Fy4T-41" style="edgeStyle=none;curved=1;rounded=0;orthogonalLoop=1;jettySize=auto;html=1;exitX=0.5;exitY=0;exitDx=0;exitDy=0;fontSize=12;startSize=8;endSize=8;" edge="1" parent="1" source="ptF2EqPsggVy_UE8Fy4T-21" target="ptF2EqPsggVy_UE8Fy4T-18">
          <mxGeometry relative="1" as="geometry" />
        </mxCell>
        <mxCell id="ptF2EqPsggVy_UE8Fy4T-21" value="&lt;font style=&quot;font-size: 16px;&quot;&gt;post 1&lt;/font&gt;" style="whiteSpace=wrap;html=1;aspect=fixed;" vertex="1" parent="1">
          <mxGeometry x="-756" y="667" width="80" height="80" as="geometry" />
        </mxCell>
        <mxCell id="ptF2EqPsggVy_UE8Fy4T-36" style="edgeStyle=none;curved=1;rounded=0;orthogonalLoop=1;jettySize=auto;html=1;exitX=0.5;exitY=0;exitDx=0;exitDy=0;entryX=0.5;entryY=1;entryDx=0;entryDy=0;fontSize=12;startSize=8;endSize=8;" edge="1" parent="1" source="ptF2EqPsggVy_UE8Fy4T-22" target="ptF2EqPsggVy_UE8Fy4T-4">
          <mxGeometry relative="1" as="geometry" />
        </mxCell>
        <mxCell id="ptF2EqPsggVy_UE8Fy4T-22" value="&lt;font style=&quot;font-size: 16px;&quot;&gt;post 2&lt;/font&gt;" style="whiteSpace=wrap;html=1;aspect=fixed;" vertex="1" parent="1">
          <mxGeometry x="-1049" y="674" width="80" height="80" as="geometry" />
        </mxCell>
        <mxCell id="ptF2EqPsggVy_UE8Fy4T-37" style="edgeStyle=none;curved=1;rounded=0;orthogonalLoop=1;jettySize=auto;html=1;exitX=0.5;exitY=0;exitDx=0;exitDy=0;entryX=0;entryY=1;entryDx=0;entryDy=0;fontSize=12;startSize=8;endSize=8;" edge="1" parent="1" source="ptF2EqPsggVy_UE8Fy4T-23" target="ptF2EqPsggVy_UE8Fy4T-7">
          <mxGeometry relative="1" as="geometry" />
        </mxCell>
        <mxCell id="ptF2EqPsggVy_UE8Fy4T-23" value="&lt;font style=&quot;font-size: 16px;&quot;&gt;post 3&lt;/font&gt;" style="whiteSpace=wrap;html=1;aspect=fixed;" vertex="1" parent="1">
          <mxGeometry x="-374" y="667" width="80" height="80" as="geometry" />
        </mxCell>
        <mxCell id="ptF2EqPsggVy_UE8Fy4T-38" style="edgeStyle=none;curved=1;rounded=0;orthogonalLoop=1;jettySize=auto;html=1;exitX=0.5;exitY=0;exitDx=0;exitDy=0;entryX=1;entryY=1;entryDx=0;entryDy=0;fontSize=12;startSize=8;endSize=8;" edge="1" parent="1" source="ptF2EqPsggVy_UE8Fy4T-24" target="ptF2EqPsggVy_UE8Fy4T-7">
          <mxGeometry relative="1" as="geometry" />
        </mxCell>
        <mxCell id="ptF2EqPsggVy_UE8Fy4T-24" value="&lt;font style=&quot;font-size: 16px;&quot;&gt;post 4&lt;/font&gt;" style="whiteSpace=wrap;html=1;aspect=fixed;" vertex="1" parent="1">
          <mxGeometry x="-240" y="667" width="80" height="80" as="geometry" />
        </mxCell>
        <mxCell id="ptF2EqPsggVy_UE8Fy4T-33" style="edgeStyle=none;curved=1;rounded=0;orthogonalLoop=1;jettySize=auto;html=1;exitX=0.5;exitY=0;exitDx=0;exitDy=0;entryX=0.5;entryY=1;entryDx=0;entryDy=0;fontSize=12;startSize=8;endSize=8;" edge="1" parent="1" source="ptF2EqPsggVy_UE8Fy4T-25" target="ptF2EqPsggVy_UE8Fy4T-2">
          <mxGeometry relative="1" as="geometry" />
        </mxCell>
        <mxCell id="ptF2EqPsggVy_UE8Fy4T-25" value="&lt;font style=&quot;font-size: 16px;&quot;&gt;post 5&lt;/font&gt;" style="whiteSpace=wrap;html=1;aspect=fixed;" vertex="1" parent="1">
          <mxGeometry x="-642" y="667" width="80" height="80" as="geometry" />
        </mxCell>
        <mxCell id="ptF2EqPsggVy_UE8Fy4T-39" style="edgeStyle=none;curved=1;rounded=0;orthogonalLoop=1;jettySize=auto;html=1;exitX=0.5;exitY=0;exitDx=0;exitDy=0;entryX=0.5;entryY=1;entryDx=0;entryDy=0;fontSize=12;startSize=8;endSize=8;" edge="1" parent="1" source="ptF2EqPsggVy_UE8Fy4T-26" target="ptF2EqPsggVy_UE8Fy4T-9">
          <mxGeometry relative="1" as="geometry" />
        </mxCell>
        <mxCell id="ptF2EqPsggVy_UE8Fy4T-26" value="&lt;font style=&quot;font-size: 16px;&quot;&gt;post 6&lt;/font&gt;" style="whiteSpace=wrap;html=1;aspect=fixed;" vertex="1" parent="1">
          <mxGeometry x="-92" y="663" width="80" height="80" as="geometry" />
        </mxCell>
        <mxCell id="ptF2EqPsggVy_UE8Fy4T-40" style="edgeStyle=none;curved=1;rounded=0;orthogonalLoop=1;jettySize=auto;html=1;exitX=0.5;exitY=0;exitDx=0;exitDy=0;fontSize=12;startSize=8;endSize=8;" edge="1" parent="1" source="ptF2EqPsggVy_UE8Fy4T-27" target="ptF2EqPsggVy_UE8Fy4T-9">
          <mxGeometry relative="1" as="geometry" />
        </mxCell>
        <mxCell id="ptF2EqPsggVy_UE8Fy4T-27" value="&lt;font style=&quot;font-size: 16px;&quot;&gt;post 7&lt;/font&gt;" style="whiteSpace=wrap;html=1;aspect=fixed;" vertex="1" parent="1">
          <mxGeometry x="49" y="663" width="80" height="80" as="geometry" />
        </mxCell>
        <mxCell id="ptF2EqPsggVy_UE8Fy4T-35" style="edgeStyle=none;curved=1;rounded=0;orthogonalLoop=1;jettySize=auto;html=1;exitX=0.5;exitY=0;exitDx=0;exitDy=0;entryX=1;entryY=1;entryDx=0;entryDy=0;fontSize=12;startSize=8;endSize=8;" edge="1" parent="1" source="ptF2EqPsggVy_UE8Fy4T-28" target="ptF2EqPsggVy_UE8Fy4T-2">
          <mxGeometry relative="1" as="geometry" />
        </mxCell>
        <mxCell id="ptF2EqPsggVy_UE8Fy4T-28" value="&lt;font style=&quot;font-size: 16px;&quot;&gt;post 8&lt;/font&gt;" style="whiteSpace=wrap;html=1;aspect=fixed;" vertex="1" parent="1">
          <mxGeometry x="-522" y="667" width="80" height="80" as="geometry" />
        </mxCell>
        <mxCell id="ptF2EqPsggVy_UE8Fy4T-42" style="edgeStyle=none;curved=1;rounded=0;orthogonalLoop=1;jettySize=auto;html=1;exitX=0.5;exitY=0;exitDx=0;exitDy=0;entryX=1;entryY=0.5;entryDx=0;entryDy=0;fontSize=12;startSize=8;endSize=8;" edge="1" parent="1" source="ptF2EqPsggVy_UE8Fy4T-29" target="ptF2EqPsggVy_UE8Fy4T-9">
          <mxGeometry relative="1" as="geometry" />
        </mxCell>
        <mxCell id="ptF2EqPsggVy_UE8Fy4T-29" value="&lt;font style=&quot;font-size: 16px;&quot;&gt;post 9&lt;/font&gt;" style="whiteSpace=wrap;html=1;aspect=fixed;" vertex="1" parent="1">
          <mxGeometry x="188" y="663" width="80" height="80" as="geometry" />
        </mxCell>
        <mxCell id="ptF2EqPsggVy_UE8Fy4T-43" style="edgeStyle=none;curved=1;rounded=0;orthogonalLoop=1;jettySize=auto;html=1;exitX=0.5;exitY=0;exitDx=0;exitDy=0;fontSize=12;startSize=8;endSize=8;" edge="1" parent="1" source="ptF2EqPsggVy_UE8Fy4T-30" target="ptF2EqPsggVy_UE8Fy4T-18">
          <mxGeometry relative="1" as="geometry" />
        </mxCell>
        <mxCell id="ptF2EqPsggVy_UE8Fy4T-30" value="&lt;font style=&quot;font-size: 16px;&quot;&gt;post 10&lt;/font&gt;" style="whiteSpace=wrap;html=1;aspect=fixed;" vertex="1" parent="1">
          <mxGeometry x="-912" y="667" width="80" height="80" as="geometry" />
        </mxCell>
      </root>
    </mxGraphModel>
  </diagram>
  <diagram id="OzGHfEMCpmYitoxUHFVc" name="Subscriptions">
    <mxGraphModel dx="3938" dy="830" grid="0" gridSize="10" guides="1" tooltips="1" connect="1" arrows="1" fold="1" page="0" pageScale="1" pageWidth="827" pageHeight="1169" math="0" shadow="0">
      <root>
        <mxCell id="0" />
        <mxCell id="1" parent="0" />
        <mxCell id="G5iX2uOt89-gfMOdwZq5-1" value="&lt;font style=&quot;font-size: 16px;&quot;&gt;user 1&lt;/font&gt;" style="ellipse;whiteSpace=wrap;html=1;aspect=fixed;" vertex="1" parent="1">
          <mxGeometry x="-522" y="516" width="80" height="80" as="geometry" />
        </mxCell>
        <mxCell id="G5iX2uOt89-gfMOdwZq5-2" value="&lt;font style=&quot;font-size: 16px;&quot;&gt;user 6&lt;/font&gt;" style="ellipse;whiteSpace=wrap;html=1;aspect=fixed;" vertex="1" parent="1">
          <mxGeometry x="-1049" y="527" width="80" height="80" as="geometry" />
        </mxCell>
        <mxCell id="G5iX2uOt89-gfMOdwZq5-3" value="&lt;font style=&quot;font-size: 16px;&quot;&gt;user 3&lt;/font&gt;" style="ellipse;whiteSpace=wrap;html=1;aspect=fixed;" vertex="1" parent="1">
          <mxGeometry x="-638" y="531" width="80" height="80" as="geometry" />
        </mxCell>
        <mxCell id="G5iX2uOt89-gfMOdwZq5-5" value="&lt;font style=&quot;font-size: 16px;&quot;&gt;user 2&lt;/font&gt;" style="ellipse;whiteSpace=wrap;html=1;aspect=fixed;" vertex="1" parent="1">
          <mxGeometry x="-908" y="527" width="80" height="80" as="geometry" />
        </mxCell>
        <mxCell id="G5iX2uOt89-gfMOdwZq5-28" style="edgeStyle=none;curved=1;rounded=0;orthogonalLoop=1;jettySize=auto;html=1;exitX=0.5;exitY=0;exitDx=0;exitDy=0;entryX=0.5;entryY=1;entryDx=0;entryDy=0;fontSize=12;startSize=8;endSize=8;" edge="1" parent="1" source="G5iX2uOt89-gfMOdwZq5-8" target="G5iX2uOt89-gfMOdwZq5-27">
          <mxGeometry relative="1" as="geometry" />
        </mxCell>
        <mxCell id="G5iX2uOt89-gfMOdwZq5-8" value="&lt;font style=&quot;font-size: 16px;&quot;&gt;tag 3&lt;/font&gt;" style="whiteSpace=wrap;html=1;aspect=fixed;" vertex="1" parent="1">
          <mxGeometry x="-756" y="667" width="80" height="80" as="geometry" />
        </mxCell>
        <mxCell id="G5iX2uOt89-gfMOdwZq5-9" style="edgeStyle=none;curved=1;rounded=0;orthogonalLoop=1;jettySize=auto;html=1;exitX=0.5;exitY=0;exitDx=0;exitDy=0;entryX=0.5;entryY=1;entryDx=0;entryDy=0;fontSize=12;startSize=8;endSize=8;" edge="1" parent="1" source="G5iX2uOt89-gfMOdwZq5-10" target="G5iX2uOt89-gfMOdwZq5-2">
          <mxGeometry relative="1" as="geometry" />
        </mxCell>
        <mxCell id="G5iX2uOt89-gfMOdwZq5-34" style="edgeStyle=none;curved=1;rounded=0;orthogonalLoop=1;jettySize=auto;html=1;exitX=0.5;exitY=0;exitDx=0;exitDy=0;entryX=0.5;entryY=1;entryDx=0;entryDy=0;fontSize=12;startSize=8;endSize=8;" edge="1" parent="1" source="G5iX2uOt89-gfMOdwZq5-10" target="G5iX2uOt89-gfMOdwZq5-33">
          <mxGeometry relative="1" as="geometry" />
        </mxCell>
        <mxCell id="G5iX2uOt89-gfMOdwZq5-10" value="&lt;font style=&quot;font-size: 16px;&quot;&gt;tag 1&lt;/font&gt;" style="whiteSpace=wrap;html=1;aspect=fixed;" vertex="1" parent="1">
          <mxGeometry x="-1113" y="663" width="80" height="80" as="geometry" />
        </mxCell>
        <mxCell id="G5iX2uOt89-gfMOdwZq5-31" style="edgeStyle=none;curved=1;rounded=0;orthogonalLoop=1;jettySize=auto;html=1;exitX=0.5;exitY=0;exitDx=0;exitDy=0;entryX=0.5;entryY=1;entryDx=0;entryDy=0;fontSize=12;startSize=8;endSize=8;" edge="1" parent="1" source="G5iX2uOt89-gfMOdwZq5-12" target="G5iX2uOt89-gfMOdwZq5-30">
          <mxGeometry relative="1" as="geometry" />
        </mxCell>
        <mxCell id="G5iX2uOt89-gfMOdwZq5-12" value="&lt;font style=&quot;font-size: 16px;&quot;&gt;tag 6&lt;/font&gt;" style="whiteSpace=wrap;html=1;aspect=fixed;" vertex="1" parent="1">
          <mxGeometry x="-374" y="667" width="80" height="80" as="geometry" />
        </mxCell>
        <mxCell id="G5iX2uOt89-gfMOdwZq5-32" style="edgeStyle=none;curved=1;rounded=0;orthogonalLoop=1;jettySize=auto;html=1;exitX=0.5;exitY=0;exitDx=0;exitDy=0;entryX=1;entryY=1;entryDx=0;entryDy=0;fontSize=12;startSize=8;endSize=8;" edge="1" parent="1" source="G5iX2uOt89-gfMOdwZq5-14" target="G5iX2uOt89-gfMOdwZq5-5">
          <mxGeometry relative="1" as="geometry" />
        </mxCell>
        <mxCell id="G5iX2uOt89-gfMOdwZq5-14" value="&lt;font style=&quot;font-size: 16px;&quot;&gt;tag 7&lt;/font&gt;" style="whiteSpace=wrap;html=1;aspect=fixed;" vertex="1" parent="1">
          <mxGeometry x="-852" y="667" width="80" height="80" as="geometry" />
        </mxCell>
        <mxCell id="G5iX2uOt89-gfMOdwZq5-29" style="edgeStyle=none;curved=1;rounded=0;orthogonalLoop=1;jettySize=auto;html=1;exitX=0.5;exitY=0;exitDx=0;exitDy=0;fontSize=12;startSize=8;endSize=8;" edge="1" parent="1" source="G5iX2uOt89-gfMOdwZq5-16" target="G5iX2uOt89-gfMOdwZq5-3">
          <mxGeometry relative="1" as="geometry" />
        </mxCell>
        <mxCell id="G5iX2uOt89-gfMOdwZq5-16" value="&lt;font style=&quot;font-size: 16px;&quot;&gt;tag 4&lt;/font&gt;" style="whiteSpace=wrap;html=1;aspect=fixed;" vertex="1" parent="1">
          <mxGeometry x="-642" y="667" width="80" height="80" as="geometry" />
        </mxCell>
        <mxCell id="G5iX2uOt89-gfMOdwZq5-37" style="edgeStyle=none;curved=1;rounded=0;orthogonalLoop=1;jettySize=auto;html=1;exitX=0.5;exitY=0;exitDx=0;exitDy=0;entryX=0.5;entryY=1;entryDx=0;entryDy=0;fontSize=12;startSize=8;endSize=8;" edge="1" parent="1" source="G5iX2uOt89-gfMOdwZq5-20" target="G5iX2uOt89-gfMOdwZq5-35">
          <mxGeometry relative="1" as="geometry" />
        </mxCell>
        <mxCell id="G5iX2uOt89-gfMOdwZq5-20" value="&lt;font style=&quot;font-size: 16px;&quot;&gt;tag 9&lt;/font&gt;" style="whiteSpace=wrap;html=1;aspect=fixed;" vertex="1" parent="1">
          <mxGeometry x="-1490" y="669" width="80" height="80" as="geometry" />
        </mxCell>
        <mxCell id="G5iX2uOt89-gfMOdwZq5-21" style="edgeStyle=none;curved=1;rounded=0;orthogonalLoop=1;jettySize=auto;html=1;exitX=0.5;exitY=0;exitDx=0;exitDy=0;entryX=0.5;entryY=1;entryDx=0;entryDy=0;fontSize=12;startSize=8;endSize=8;" edge="1" parent="1" source="G5iX2uOt89-gfMOdwZq5-22" target="G5iX2uOt89-gfMOdwZq5-1">
          <mxGeometry relative="1" as="geometry" />
        </mxCell>
        <mxCell id="G5iX2uOt89-gfMOdwZq5-22" value="&lt;font style=&quot;font-size: 16px;&quot;&gt;tag 5&lt;/font&gt;" style="whiteSpace=wrap;html=1;aspect=fixed;" vertex="1" parent="1">
          <mxGeometry x="-522" y="667" width="80" height="80" as="geometry" />
        </mxCell>
        <mxCell id="G5iX2uOt89-gfMOdwZq5-43" style="edgeStyle=none;curved=1;rounded=0;orthogonalLoop=1;jettySize=auto;html=1;exitX=0.5;exitY=0;exitDx=0;exitDy=0;entryX=0.5;entryY=1;entryDx=0;entryDy=0;fontSize=12;startSize=8;endSize=8;" edge="1" parent="1" source="G5iX2uOt89-gfMOdwZq5-24" target="G5iX2uOt89-gfMOdwZq5-33">
          <mxGeometry relative="1" as="geometry" />
        </mxCell>
        <mxCell id="G5iX2uOt89-gfMOdwZq5-24" value="&lt;font style=&quot;font-size: 16px;&quot;&gt;tag 10&lt;/font&gt;" style="whiteSpace=wrap;html=1;aspect=fixed;" vertex="1" parent="1">
          <mxGeometry x="-1233" y="663" width="80" height="80" as="geometry" />
        </mxCell>
        <mxCell id="G5iX2uOt89-gfMOdwZq5-25" style="edgeStyle=none;curved=1;rounded=0;orthogonalLoop=1;jettySize=auto;html=1;exitX=0.5;exitY=0;exitDx=0;exitDy=0;fontSize=12;startSize=8;endSize=8;entryX=0;entryY=1;entryDx=0;entryDy=0;" edge="1" parent="1" source="G5iX2uOt89-gfMOdwZq5-26" target="G5iX2uOt89-gfMOdwZq5-5">
          <mxGeometry relative="1" as="geometry" />
        </mxCell>
        <mxCell id="G5iX2uOt89-gfMOdwZq5-26" value="&lt;font style=&quot;font-size: 16px;&quot;&gt;tag 2&lt;/font&gt;" style="whiteSpace=wrap;html=1;aspect=fixed;" vertex="1" parent="1">
          <mxGeometry x="-963" y="669" width="80" height="80" as="geometry" />
        </mxCell>
        <mxCell id="G5iX2uOt89-gfMOdwZq5-27" value="&lt;font style=&quot;font-size: 16px;&quot;&gt;user 5&lt;/font&gt;" style="ellipse;whiteSpace=wrap;html=1;aspect=fixed;" vertex="1" parent="1">
          <mxGeometry x="-754" y="527" width="80" height="80" as="geometry" />
        </mxCell>
        <mxCell id="G5iX2uOt89-gfMOdwZq5-30" value="&lt;font style=&quot;font-size: 16px;&quot;&gt;user 4&lt;/font&gt;" style="ellipse;whiteSpace=wrap;html=1;aspect=fixed;" vertex="1" parent="1">
          <mxGeometry x="-374" y="534" width="80" height="80" as="geometry" />
        </mxCell>
        <mxCell id="G5iX2uOt89-gfMOdwZq5-33" value="&lt;font style=&quot;font-size: 16px;&quot;&gt;user 9&lt;/font&gt;" style="ellipse;whiteSpace=wrap;html=1;aspect=fixed;" vertex="1" parent="1">
          <mxGeometry x="-1183" y="534" width="80" height="80" as="geometry" />
        </mxCell>
        <mxCell id="G5iX2uOt89-gfMOdwZq5-35" value="&lt;font style=&quot;font-size: 16px;&quot;&gt;user 8&lt;/font&gt;" style="ellipse;whiteSpace=wrap;html=1;aspect=fixed;" vertex="1" parent="1">
          <mxGeometry x="-1490" y="530" width="80" height="80" as="geometry" />
        </mxCell>
        <mxCell id="G5iX2uOt89-gfMOdwZq5-40" style="edgeStyle=none;curved=1;rounded=0;orthogonalLoop=1;jettySize=auto;html=1;exitX=0.5;exitY=0;exitDx=0;exitDy=0;entryX=0.5;entryY=1;entryDx=0;entryDy=0;fontSize=12;startSize=8;endSize=8;" edge="1" parent="1" source="G5iX2uOt89-gfMOdwZq5-41" target="G5iX2uOt89-gfMOdwZq5-42">
          <mxGeometry relative="1" as="geometry" />
        </mxCell>
        <mxCell id="G5iX2uOt89-gfMOdwZq5-41" value="&lt;font style=&quot;font-size: 16px;&quot;&gt;tag 8&lt;/font&gt;" style="whiteSpace=wrap;html=1;aspect=fixed;" vertex="1" parent="1">
          <mxGeometry x="-1341" y="669" width="80" height="80" as="geometry" />
        </mxCell>
        <mxCell id="G5iX2uOt89-gfMOdwZq5-42" value="&lt;font style=&quot;font-size: 16px;&quot;&gt;user 7&lt;/font&gt;" style="ellipse;whiteSpace=wrap;html=1;aspect=fixed;" vertex="1" parent="1">
          <mxGeometry x="-1341" y="531" width="80" height="80" as="geometry" />
        </mxCell>
      </root>
    </mxGraphModel>
  </diagram>
</mxfile>
